<svg width="129" height="31" viewBox="0 0 129 31" fill="none" xmlns="http://www.w3.org/2000/svg">
<path d="M45.5738 24H41.0238L35.4238 15.9V24H31.4238V6.5H35.4238V14.1L40.7738 6.5H45.3238L39.4238 15.025L45.5738 24ZM46.9482 10V6.5H50.6982V10H46.9482ZM46.9482 24V11.5H50.6982V24H46.9482ZM60.4424 11.15C61.6257 11.15 62.584 11.5917 63.3174 12.475C64.0674 13.3417 64.4424 14.5417 64.4424 16.075V24H60.6924V16.4C60.6924 15.8 60.534 15.35 60.2174 15.05C59.9174 14.75 59.5174 14.6 59.0174 14.6C57.8007 14.6 57.1924 15.3 57.1924 16.7V24H53.4424V11.5H57.1924V12.65C57.8424 11.65 58.9257 11.15 60.4424 11.15ZM77.5701 22.45C76.2868 23.7167 74.7201 24.35 72.8701 24.35C71.0201 24.35 69.4535 23.7167 68.1701 22.45C66.8868 21.1667 66.2451 19.6 66.2451 17.75C66.2451 15.9 66.8868 14.3417 68.1701 13.075C69.4535 11.7917 71.0201 11.15 72.8701 11.15C74.7201 11.15 76.2868 11.7917 77.5701 13.075C78.8535 14.3417 79.4951 15.9 79.4951 17.75C79.4951 19.6 78.8535 21.1667 77.5701 22.45ZM70.8201 19.875C71.3701 20.425 72.0535 20.7 72.8701 20.7C73.6868 20.7 74.3701 20.425 74.9201 19.875C75.4701 19.325 75.7451 18.6167 75.7451 17.75C75.7451 16.8833 75.4701 16.175 74.9201 15.625C74.3701 15.075 73.6868 14.8 72.8701 14.8C72.0535 14.8 71.3701 15.075 70.8201 15.625C70.2701 16.175 69.9951 16.8833 69.9951 17.75C69.9951 18.6167 70.2701 19.325 70.8201 19.875Z" fill="#3657CB"/>
<path d="M83.0912 12.4C84.0912 11.5667 85.3245 11.15 86.7912 11.15C88.2579 11.15 89.4912 11.5833 90.4912 12.45C91.4912 13.3 91.9912 14.525 91.9912 16.125V24H88.3412V23.025C87.5745 23.9083 86.4995 24.35 85.1162 24.35C83.9495 24.35 82.9662 24.0083 82.1662 23.325C81.3829 22.6417 80.9912 21.6833 80.9912 20.45C80.9912 19.2167 81.3829 18.2583 82.1662 17.575C82.9662 16.8917 83.9495 16.55 85.1162 16.55C86.4162 16.55 87.4912 16.8667 88.3412 17.5V16.375C88.3412 15.1917 87.8245 14.6 86.7912 14.6C86.2912 14.6 85.9079 14.7167 85.6412 14.95C85.3745 15.1833 85.2412 15.4917 85.2412 15.875H81.5912C81.5912 14.3917 82.0912 13.2333 83.0912 12.4ZM86.4412 21.7C87.0412 21.7 87.5079 21.5833 87.8412 21.35C88.1745 21.1167 88.3412 20.8167 88.3412 20.45C88.3412 20.0667 88.1745 19.7667 87.8412 19.55C87.5079 19.3167 87.0412 19.2 86.4412 19.2C85.8912 19.2 85.4662 19.3167 85.1662 19.55C84.8829 19.7667 84.7412 20.0667 84.7412 20.45C84.7412 20.8333 84.8829 21.1417 85.1662 21.375C85.4662 21.5917 85.8912 21.7 86.4412 21.7ZM98.1592 13.475C98.3592 12.7583 98.7508 12.2083 99.3342 11.825C99.9175 11.4417 100.609 11.25 101.409 11.25V15.5C100.543 15.3667 99.7842 15.5083 99.1342 15.925C98.4842 16.3417 98.1592 17.0667 98.1592 18.1V24H94.4092V11.5H98.1592V13.475ZM106.083 19.25C106.5 20.6333 107.475 21.325 109.008 21.325C109.458 21.325 109.883 21.2417 110.283 21.075C110.683 20.8917 110.975 20.6583 111.158 20.375L114.808 20.35C114.408 21.65 113.692 22.6417 112.658 23.325C111.625 24.0083 110.392 24.35 108.958 24.35C106.925 24.35 105.283 23.725 104.033 22.475C102.783 21.225 102.158 19.65 102.158 17.75C102.158 15.8667 102.783 14.3 104.033 13.05C105.3 11.7833 106.908 11.15 108.858 11.15C110.675 11.15 112.175 11.775 113.358 13.025C114.558 14.275 115.158 15.85 115.158 17.75C115.158 18.2833 115.108 18.7833 115.008 19.25H106.083ZM106.058 16.4H111.433C111.067 15.1167 110.2 14.475 108.833 14.475C107.4 14.475 106.475 15.1167 106.058 16.4ZM118.711 12.4C119.711 11.5667 120.945 11.15 122.411 11.15C123.878 11.15 125.111 11.5833 126.111 12.45C127.111 13.3 127.611 14.525 127.611 16.125V24H123.961V23.025C123.195 23.9083 122.12 24.35 120.736 24.35C119.57 24.35 118.586 24.0083 117.786 23.325C117.003 22.6417 116.611 21.6833 116.611 20.45C116.611 19.2167 117.003 18.2583 117.786 17.575C118.586 16.8917 119.57 16.55 120.736 16.55C122.036 16.55 123.111 16.8667 123.961 17.5V16.375C123.961 15.1917 123.445 14.6 122.411 14.6C121.911 14.6 121.528 14.7167 121.261 14.95C120.995 15.1833 120.861 15.4917 120.861 15.875H117.211C117.211 14.3917 117.711 13.2333 118.711 12.4ZM122.061 21.7C122.661 21.7 123.128 21.5833 123.461 21.35C123.795 21.1167 123.961 20.8167 123.961 20.45C123.961 20.0667 123.795 19.7667 123.461 19.55C123.128 19.3167 122.661 19.2 122.061 19.2C121.511 19.2 121.086 19.3167 120.786 19.55C120.503 19.7667 120.361 20.0667 120.361 20.45C120.361 20.8333 120.503 21.1417 120.786 21.375C121.086 21.5917 121.511 21.7 122.061 21.7Z" fill="white"/>
<g clip-path="url(#clip0_1_1892)">
<path d="M13.2313 9.46718C13.2313 8.07499 12.0986 6.94238 10.7064 6.94238C9.31425 6.94238 8.18164 8.07499 8.18164 9.46718C8.18164 10.8594 9.31425 11.992 10.7064 11.992C12.0986 11.992 13.2313 10.8594 13.2313 9.46718ZM9.11675 9.46718C9.11675 8.59061 9.82987 7.87749 10.7064 7.87749C11.583 7.87749 12.2961 8.59061 12.2961 9.46718C12.2961 10.3438 11.583 11.0569 10.7064 11.0569C9.82987 11.0569 9.11675 10.3438 9.11675 9.46718Z" fill="white"/>
<path d="M6.62849 15.5129C7.22925 15.2068 7.67483 14.685 7.88322 14.0438C8.09157 13.4026 8.03775 12.7186 7.73164 12.1178C7.42553 11.5171 6.90378 11.0715 6.26258 10.8631C5.62128 10.6547 4.93729 10.7086 4.33657 11.0147C3.73581 11.3208 3.29023 11.8425 3.08184 12.4837C2.8735 13.125 2.92731 13.809 3.23342 14.4098C3.53953 15.0105 4.06128 15.4561 4.70248 15.6645C4.95926 15.7479 5.22283 15.7893 5.48517 15.7893C5.87806 15.7893 6.26824 15.6965 6.62849 15.5129ZM4.99143 14.7751C4.58774 14.644 4.25929 14.3635 4.06656 13.9853C3.87383 13.6071 3.83993 13.1764 3.97113 12.7727C4.10228 12.3691 4.38281 12.0406 4.76102 11.8479C4.98783 11.7323 5.23344 11.6738 5.48082 11.6738C5.64596 11.6738 5.81195 11.6999 5.97358 11.7524C6.37727 11.8836 6.70573 12.1641 6.89845 12.5423C7.09118 12.9205 7.12508 13.3512 6.99388 13.7548C6.86273 14.1585 6.5822 14.487 6.20399 14.6797C5.82574 14.8724 5.39512 14.9063 4.99143 14.7751Z" fill="white"/>
<path d="M5.99292 21.4491C6.44009 21.7739 6.95908 21.9303 7.47353 21.9303C8.25491 21.9303 9.026 21.5696 9.51937 20.8905C9.91576 20.3449 10.0759 19.6777 9.97042 19.0116C9.86489 18.3455 9.50637 17.7604 8.96078 17.3641C8.41519 16.9677 7.74803 16.8075 7.08186 16.913C6.41577 17.0185 5.83067 17.3771 5.43433 17.9226C4.61615 19.0488 4.86671 20.6308 5.99292 21.4491ZM6.19093 18.4723C6.44046 18.1288 6.80885 17.903 7.2282 17.8366C7.31241 17.8233 7.39661 17.8167 7.48026 17.8167C7.81316 17.8167 8.13671 17.9212 8.41121 18.1206C9.12031 18.6358 9.27806 19.6318 8.76286 20.3409C8.24766 21.05 7.25167 21.2078 6.54258 20.6926C5.83348 20.1774 5.67573 19.1813 6.19093 18.4723Z" fill="white"/>
<path d="M13.9407 21.9303C14.4551 21.9303 14.9742 21.7738 15.4213 21.449C16.5475 20.6308 16.7981 19.0488 15.9799 17.9226C15.5835 17.377 14.9984 17.0185 14.3323 16.913C13.6663 16.8075 12.999 16.9677 12.4534 17.364C11.9078 17.7604 11.5493 18.3455 11.4438 19.0116C11.3382 19.6776 11.4985 20.3449 11.8948 20.8905C12.3883 21.5697 13.1592 21.9303 13.9407 21.9303ZM13.003 18.1206C13.3465 17.871 13.7665 17.7701 14.186 17.8366C14.6053 17.903 14.9737 18.1287 15.2233 18.4722C15.7385 19.1813 15.5807 20.1773 14.8716 20.6925C14.1625 21.2077 13.1665 21.05 12.6513 20.3409C12.1362 19.6318 12.2939 18.6357 13.003 18.1206Z" fill="white"/>
<path d="M15.1517 10.863C14.5104 11.0714 13.9887 11.517 13.6826 12.1178C13.3765 12.7185 13.3227 13.4025 13.5311 14.0438C13.7394 14.685 14.185 15.2068 14.7858 15.5128C15.146 15.6964 15.5362 15.7893 15.9291 15.7893C16.1915 15.7893 16.4551 15.7478 16.7118 15.6645C17.3531 15.4561 17.8748 15.0105 18.1809 14.4097C18.487 13.809 18.5408 13.125 18.3324 12.4837C18.1241 11.8425 17.6785 11.3207 17.0777 11.0147C16.477 10.7086 15.793 10.6548 15.1517 10.863ZM16.6532 11.8478C17.0314 12.0406 17.312 12.369 17.4431 12.7727C17.5743 13.1764 17.5404 13.607 17.3477 13.9852C17.155 14.3634 16.8265 14.644 16.4228 14.7751C16.0191 14.9063 15.5885 14.8724 15.2103 14.6797C14.8321 14.487 14.5515 14.1586 14.4204 13.7548C14.2892 13.3511 14.3231 12.9205 14.5158 12.5423C14.7086 12.1641 15.037 11.8836 15.4407 11.7524C15.6023 11.6999 15.7683 11.6738 15.9335 11.6738C16.1808 11.6738 16.4264 11.7323 16.6532 11.8478Z" fill="white"/>
<path d="M12.3102 14.9613C12.3102 14.0772 11.591 13.3579 10.7069 13.3579C9.82276 13.3579 9.10352 14.0772 9.10352 14.9613C9.10352 15.8454 9.82276 16.5646 10.7069 16.5646C11.591 16.5646 12.3102 15.8454 12.3102 14.9613ZM10.0386 14.9613C10.0386 14.5928 10.3384 14.293 10.7069 14.293C11.0753 14.293 11.3751 14.5928 11.3751 14.9613C11.3751 15.3297 11.0753 15.6295 10.7069 15.6295C10.3384 15.6295 10.0386 15.3297 10.0386 14.9613Z" fill="white"/>
<path d="M23.8019 23.6465C23.2732 23.1178 22.5703 22.8267 21.8226 22.8267C21.0749 22.8267 20.372 23.1179 19.8433 23.6465C19.1424 24.3474 18.2106 24.7334 17.2195 24.7334H15.0959C16.2663 24.2071 17.3434 23.467 18.278 22.5324C20.3004 20.5102 21.4141 17.8214 21.4141 14.9614C21.4141 12.8696 20.8107 10.843 19.669 9.10066C19.5275 8.88465 19.2377 8.82429 19.0217 8.96582C18.8057 9.10735 18.7453 9.39719 18.8869 9.61315C19.9284 11.2028 20.479 13.0522 20.479 14.9614C20.479 20.3497 16.0953 24.7334 10.707 24.7334C5.31878 24.7334 0.935113 20.3497 0.935113 14.9614C0.935113 9.57318 5.31878 5.18951 10.707 5.18951C12.6195 5.18951 14.4716 5.74179 16.063 6.78668C16.2788 6.92844 16.5687 6.86836 16.7105 6.65245C16.8522 6.43657 16.7921 6.14674 16.5762 6.00497C14.832 4.85974 12.8024 4.25439 10.707 4.25439C7.84709 4.25439 5.15832 5.36811 3.13604 7.39044C1.11377 9.41276 0 12.1015 0 14.9614C0 17.8214 1.11372 20.5102 3.13604 22.5325C5.15832 24.5548 7.84709 25.6685 10.707 25.6685H17.2195C18.4604 25.6685 19.627 25.1853 20.5045 24.3078C20.8566 23.9557 21.3247 23.7617 21.8226 23.7617C22.3205 23.7617 22.7886 23.9556 23.1407 24.3078C23.3233 24.4903 23.6193 24.4903 23.8019 24.3078C23.9845 24.1252 23.9845 23.8291 23.8019 23.6465Z" fill="white"/>
<path d="M17.95 8.19148C18.0729 8.19148 18.1936 8.14192 18.2805 8.05496C18.3675 7.96752 18.4175 7.84736 18.4175 7.72439C18.4175 7.60096 18.3675 7.4808 18.2805 7.39336C18.1936 7.3064 18.0729 7.25684 17.95 7.25684C17.827 7.25684 17.7064 7.3064 17.6194 7.39336C17.5325 7.4808 17.4824 7.60096 17.4824 7.72439C17.4824 7.84736 17.5325 7.96799 17.6194 8.05496C17.7064 8.14192 17.827 8.19148 17.95 8.19148Z" fill="white"/>
</g>
<defs>
<clipPath id="clip0_1_1892">
<rect width="23.9389" height="23.9389" fill="white" transform="translate(0 2.99219)"/>
</clipPath>
</defs>
</svg>
